<?xml version="1.0" standalone="no"?>
<!DOCTYPE svg PUBLIC "-//W3C//DTD SVG 20010904//EN"
 "http://www.w3.org/TR/2001/REC-SVG-20010904/DTD/svg10.dtd">
<svg version="1.0" xmlns="http://www.w3.org/2000/svg"
 width="512.000000pt" height="512.000000pt" viewBox="0 0 512.000000 512.000000"
 preserveAspectRatio="xMidYMid meet">
<metadata>
Created by potrace 1.14, written by Peter Selinger 2001-2017
</metadata>
<g transform="translate(0.000000,512.000000) scale(0.100000,-0.100000)"
fill="#000000" stroke="none">
<path d="M4410 5117 c-3 -3 -21 -7 -40 -10 -93 -14 -215 -77 -290 -150 -22
-21 -756 -766 -1145 -1162 -81 -82 -364 -370 -629 -638 -264 -269 -557 -567
-651 -662 -93 -95 -388 -395 -655 -665 -267 -271 -561 -569 -654 -664 -92 -94
-187 -200 -211 -236 -141 -217 -128 -494 35 -705 68 -88 157 -151 271 -193
l74 -27 2020 -2 c2217 -3 2078 -7 2206 57 87 43 154 97 220 178 20 24 73 120
82 147 57 188 52 288 -19 359 -79 78 -206 76 -284 -4 -37 -38 -48 -64 -56
-133 -12 -99 -48 -155 -119 -188 -38 -18 -116 -19 -2005 -19 -1889 0 -1967 1
-2005 19 -71 33 -113 99 -116 183 -3 76 21 110 208 299 97 98 180 179 184 179
3 0 31 -25 62 -55 64 -63 107 -85 170 -85 56 0 104 20 138 57 92 98 79 212
-37 323 l-55 53 202 203 c111 111 205 206 208 211 27 37 38 34 91 -22 72 -75
125 -99 199 -92 73 6 122 37 156 98 29 54 33 121 10 175 -8 19 -42 64 -76 100
-34 35 -60 66 -58 68 329 333 432 436 438 436 4 0 32 -25 61 -55 30 -30 74
-64 96 -75 134 -66 284 31 284 182 0 58 -21 99 -89 169 -33 35 -61 68 -61 72
-1 5 96 108 215 229 l216 220 67 -65 c103 -99 152 -116 252 -86 49 15 114 83
124 130 19 96 -1 148 -89 236 -36 36 -65 68 -65 71 0 4 99 107 218 229 l218
222 60 -60 c78 -80 128 -109 190 -110 27 -1 61 4 75 9 69 27 128 111 129 182
0 70 -19 106 -95 186 l-75 78 62 64 c252 258 316 320 344 329 17 6 54 10 83 9
65 -3 126 -43 160 -105 l24 -44 1 -1511 1 -1511 22 -35 c12 -20 32 -45 45 -57
75 -69 208 -62 276 16 38 44 41 48 48 77 4 16 7 706 7 1534 -1 1363 -2 1512
-17 1574 -50 208 -202 373 -403 436 -62 20 -241 39 -253 27z"/>
<path d="M3833 2895 c-46 -21 -1584 -1561 -1606 -1608 -48 -99 3 -227 108
-272 29 -12 1580 -15 1631 -3 52 12 108 58 131 106 17 34 18 92 18 842 l0 805
-24 42 c-37 65 -90 97 -165 100 -38 1 -73 -3 -93 -12z m-117 -1087 l-1 -403
-407 -1 c-225 0 -408 2 -408 5 0 10 804 810 810 806 3 -2 6 -185 6 -407z"/>
</g>
</svg>
