<svg width="24" height="24" viewBox="0 0 24 24" fill="none" xmlns="http://www.w3.org/2000/svg">
<path fill-rule="evenodd" clip-rule="evenodd" d="M11.3325 1.89767C11.3323 1.89776 11.3327 1.89758 11.3325 1.89767L3.33361 5.89712L3.3325 5.89767C2.82284 6.15093 2.5004 6.6708 2.5 7.23991V16.7634C2.49604 17.3333 2.81537 17.8562 3.32411 18.1129C3.32441 18.1131 3.32382 18.1128 3.32411 18.1129L11.3236 22.1127C11.7461 22.3241 12.2437 22.3242 12.6663 22.1128L20.6664 18.1127L20.6675 18.1121C21.1772 17.8588 21.4997 17.3388 21.5 16.7696V7.24017C21.4997 6.67096 21.1772 6.15097 20.6675 5.89767L20.6664 5.89712L12.6675 1.89767C12.6673 1.89758 12.6677 1.89777 12.6675 1.89767C12.2473 1.68911 11.7527 1.6891 11.3325 1.89767ZM10.8875 1.00214C11.5883 0.653909 12.4117 0.653909 13.1125 1.00214L13.1136 1.00269L21.1125 5.00214C21.1127 5.00222 21.1123 5.00206 21.1125 5.00214C21.9618 5.42439 22.4995 6.29114 22.5 7.23964V16.7699C22.4995 17.7183 21.9624 18.5851 21.1132 19.0073C21.1129 19.0075 21.1134 19.0072 21.1132 19.0073L13.1138 23.007C13.1137 23.0071 13.1138 23.007 13.1138 23.007C12.4096 23.3593 11.5805 23.3594 10.8764 23.0071C10.8763 23.0071 10.8764 23.0071 10.8764 23.0071L2.8764 19.0071L2.87502 19.0064C2.0268 18.579 1.49409 17.7079 1.5 16.7583V7.23991C1.50051 6.29145 2.03768 5.42471 2.8869 5.00244C2.8871 5.00234 2.8867 5.00254 2.8869 5.00244L10.8864 1.00269L10.8875 1.00214Z" fill="#414141"/>
<path fill-rule="evenodd" clip-rule="evenodd" d="M1.87279 5.93641C1.99628 5.68943 2.29662 5.58931 2.54361 5.71281L12 10.441L21.4564 5.71281C21.7034 5.58931 22.0037 5.68943 22.1272 5.93641C22.2507 6.1834 22.1506 6.48374 21.9036 6.60724L12.2236 11.4472C12.0828 11.5176 11.9172 11.5176 11.7764 11.4472L2.0964 6.60724C1.84941 6.48374 1.74929 6.1834 1.87279 5.93641Z" fill="#414141"/>
<path fill-rule="evenodd" clip-rule="evenodd" d="M12 10.5C12.2761 10.5 12.5 10.7239 12.5 11V22.76C12.5 23.0361 12.2761 23.26 12 23.26C11.7239 23.26 11.5 23.0361 11.5 22.76V11C11.5 10.7239 11.7239 10.5 12 10.5Z" fill="#414141"/>
<path fill-rule="evenodd" clip-rule="evenodd" d="M6.55279 3.2765C6.67628 3.02951 6.97662 2.9294 7.22361 3.0529L17.2236 8.0529C17.4706 8.17639 17.5707 8.47673 17.4472 8.72372C17.3237 8.97071 17.0234 9.07082 16.7764 8.94732L6.7764 3.94732C6.52941 3.82383 6.42929 3.52349 6.55279 3.2765Z" fill="#414141"/>
</svg>
