<svg width="101" height="11" viewBox="0 0 101 11" fill="none" xmlns="http://www.w3.org/2000/svg">
<path d="M6.95294 7.21859C6.74777 7.36998 6.5029 7.48845 6.22494 7.58718C5.94697 7.68591 5.69548 7.73199 5.46384 7.73199C4.71599 7.73199 4.07402 7.47529 3.55118 6.96848C3.02835 6.45509 2.77024 5.8298 2.77024 5.09262C2.77024 4.34886 3.02835 3.72357 3.55118 3.21018C4.07402 2.6902 4.71599 2.4335 5.46384 2.4335C5.69548 2.4335 5.95359 2.48616 6.23817 2.58489C6.52276 2.68362 6.76763 2.81526 6.98603 2.97981C7.17134 3.11145 7.38312 3.0917 7.48239 2.95348L8.48836 1.4857C8.5744 1.36064 8.53469 1.16318 8.37585 1.05129C7.98538 0.768265 7.51548 0.537896 6.96617 0.360183C6.41686 0.175888 5.91388 0.0837402 5.46384 0.0837402C4.76231 0.0837402 4.09388 0.21538 3.46515 0.478658C2.83642 0.735355 2.30035 1.09078 1.84369 1.53836C1.39365 1.97935 1.03627 2.51249 0.771542 3.13119C0.506815 3.7499 0.374451 4.40151 0.374451 5.09262C0.374451 5.78372 0.506815 6.43534 0.771542 7.05404C1.03627 7.67275 1.39365 8.20589 1.84369 8.64688C2.30035 9.08787 2.83642 9.4433 3.46515 9.70658C4.09388 9.96327 4.76231 10.0949 5.46384 10.0949C5.92712 10.0949 6.4301 10.0093 6.97279 9.83163C7.5221 9.65392 7.97214 9.43013 8.32952 9.16027C8.49498 9.04838 8.56778 8.85092 8.48836 8.72586L7.50225 7.23834C7.39636 7.08695 7.1581 7.08037 6.95294 7.21859Z" fill="#414141"/>
<path d="M9.72596 9.54203C9.72596 9.75923 9.85833 9.88429 10.0767 9.88429H16.4302C16.6486 9.88429 16.7876 9.75265 16.7876 9.54203V8.12032C16.7876 7.85046 16.6023 7.67275 16.3044 7.67275H12.1019V6.03384H15.2919C15.5301 6.03384 15.6757 5.9022 15.6757 5.68499V4.43442C15.6757 4.20405 15.5301 4.07241 15.2919 4.07241H12.1019V2.47958H16.3044C16.5361 2.47958 16.6552 2.3611 16.6552 2.13073V0.61688C16.6552 0.399675 16.5229 0.268035 16.3044 0.268035H10.0767C9.85833 0.268035 9.72596 0.399675 9.72596 0.61688V9.54203Z" fill="#414141"/>
<path d="M24.1735 4.78985C24.7228 4.42784 25.0669 3.7499 25.0669 3.04563C25.0669 2.17022 24.7824 1.4857 24.2198 0.998634C23.6573 0.511568 22.8697 0.268035 21.8505 0.268035H18.3759C18.2039 0.268035 18.1178 0.353601 18.1178 0.51815V9.63418C18.1178 9.79873 18.2039 9.88429 18.3759 9.88429H22.1285C23.194 9.88429 24.0213 9.62759 24.6103 9.12078C25.2059 8.61397 25.5037 7.90312 25.5037 6.98822C25.5037 6.50774 25.3846 6.06675 25.1464 5.66525C24.9081 5.26375 24.5838 4.97414 24.1735 4.78985ZM21.824 2.40717C22.3469 2.40717 22.6712 2.71653 22.6712 3.21676C22.6712 3.71699 22.3469 4.03292 21.824 4.03292H20.5202V2.40717H21.824ZM20.5202 7.74515V5.81663H22.0954C22.7109 5.81663 23.1013 6.17864 23.1013 6.76444C23.1013 7.3634 22.7109 7.74515 22.0954 7.74515H20.5202Z" fill="#414141"/>
<path d="M26.695 9.54203C26.695 9.75923 26.8274 9.88429 27.0458 9.88429H33.3993C33.6176 9.88429 33.7566 9.75265 33.7566 9.54203V8.12032C33.7566 7.85046 33.5713 7.67275 33.2735 7.67275H29.0709V6.03384H32.2609C32.4992 6.03384 32.6448 5.9022 32.6448 5.68499V4.43442C32.6448 4.20405 32.4992 4.07241 32.2609 4.07241H29.0709V2.47958H33.2735C33.5051 2.47958 33.6243 2.3611 33.6243 2.13073V0.61688C33.6243 0.399675 33.4919 0.268035 33.2735 0.268035H27.0458C26.8274 0.268035 26.695 0.399675 26.695 0.61688V9.54203Z" fill="#414141"/>
<path d="M37.1451 0.268035H36.2848H35.431C35.2259 0.268035 35.0869 0.419421 35.0869 0.623462V9.54203C35.0869 9.75923 35.2126 9.89087 35.431 9.89087H37.1253C37.3569 9.89087 37.4893 9.75923 37.4893 9.54203V6.9224H38.6475C39.6799 6.9224 40.5138 6.61963 41.1558 6.02068C41.7977 5.41513 42.122 4.61213 42.122 3.61168C42.122 2.59805 41.7977 1.78847 41.1558 1.18293C40.5138 0.570806 39.6799 0.268035 38.6475 0.268035H37.1451ZM37.4893 4.75694V2.4335H38.5482C38.8857 2.4335 39.1703 2.5454 39.3887 2.76918C39.6137 2.98639 39.7262 3.26283 39.7262 3.59851C39.7262 3.93419 39.6137 4.21063 39.3887 4.42784C39.1703 4.64504 38.8857 4.75694 38.5482 4.75694H37.4893Z" fill="#414141"/>
<path d="M49.3888 0.268035H46.4305C45.398 0.268035 44.5575 0.570806 43.9156 1.18293C43.2736 1.78847 42.9559 2.59805 42.9559 3.60509C42.9559 4.80959 43.5052 5.80347 44.4516 6.36294L42.7574 9.48937C42.6515 9.68025 42.7706 9.89087 42.9824 9.89087H44.9612C45.1532 9.89087 45.2392 9.82505 45.3649 9.59468L46.7812 6.88291H47.7674V9.54203C47.7674 9.75923 47.8997 9.89087 48.1314 9.89087H49.8256C50.044 9.89087 50.1698 9.75923 50.1698 9.54203V0.61688C50.1698 0.412839 50.0308 0.268035 49.8256 0.268035H49.3888ZM46.5298 4.82276C46.1922 4.82276 45.9076 4.70428 45.6826 4.46733C45.4642 4.2238 45.3517 3.93419 45.3517 3.59193C45.3517 3.24967 45.4642 2.97322 45.6826 2.75602C45.901 2.53881 46.1856 2.42692 46.5298 2.42692H47.7674V4.82276H46.5298Z" fill="#414141"/>
<path d="M58.0388 0.268035C57.8733 0.268035 57.7873 0.353601 57.7873 0.524732V3.84863H54.1671V0.524732C54.1671 0.353601 54.0811 0.268035 53.9157 0.268035H52.0493C51.8773 0.268035 51.7912 0.353601 51.7912 0.524732V9.63418C51.7912 9.80531 51.8773 9.89087 52.0493 9.89087H53.9157C54.0811 9.89087 54.1671 9.80531 54.1671 9.63418V6.01409H57.7873V9.63418C57.7873 9.80531 57.8733 9.89087 58.0388 9.89087H59.9117C60.0772 9.89087 60.1632 9.80531 60.1632 9.63418V0.524732C60.1632 0.353601 60.0772 0.268035 59.9117 0.268035H58.0388Z" fill="#414141"/>
<path d="M61.3413 5.0992C61.3413 5.78372 61.4736 6.43534 61.7317 7.05404C61.9965 7.66617 62.3539 8.19931 62.7973 8.6403C63.2473 9.08129 63.7834 9.43672 64.4055 9.7C65.0276 9.95669 65.6828 10.0883 66.3777 10.0883C67.3043 10.0883 68.1514 9.87113 68.9191 9.43013C69.6934 8.98914 70.2957 8.3836 70.7391 7.62009C71.1825 6.85659 71.4075 6.01409 71.4075 5.0992C71.4075 4.40809 71.2752 3.75648 71.0105 3.13777C70.7523 2.51249 70.395 1.97935 69.9449 1.53836C69.5015 1.09736 68.9654 0.741937 68.3433 0.48524C67.7278 0.221962 67.0726 0.0903222 66.3777 0.0903222C65.6828 0.0903222 65.0276 0.221962 64.4055 0.48524C63.7834 0.741937 63.2473 1.09736 62.7973 1.53836C62.3539 1.97935 61.9965 2.51249 61.7317 3.13777C61.4736 3.75648 61.3413 4.40809 61.3413 5.0992ZM63.7371 5.0992C63.7371 4.36202 63.9952 3.74331 64.5048 3.2365C65.0144 2.72969 65.6431 2.47299 66.3777 2.47299C67.1123 2.47299 67.7345 2.72969 68.244 3.2365C68.7537 3.74331 69.0118 4.36202 69.0118 5.0992C69.0118 5.8298 68.7537 6.44192 68.244 6.94873C67.7345 7.45554 67.1123 7.70566 66.3777 7.70566C65.6365 7.70566 65.0078 7.45554 64.4982 6.94873C63.9886 6.44192 63.7371 5.8298 63.7371 5.0992Z" fill="#414141"/>
<path d="M78.3037 0.261453C78.1184 0.261453 77.9662 0.426003 77.9662 0.61688V3.32865C77.9662 3.8223 77.8073 4.21722 77.4963 4.5134C77.1852 4.80959 76.7749 4.96098 76.2521 4.96098C75.213 4.96098 74.5975 4.34886 74.5975 3.31549V0.61688C74.5975 0.412839 74.4387 0.261453 74.2269 0.261453H72.526C72.3473 0.261453 72.2017 0.426003 72.2017 0.61688V3.32207C72.2017 4.51999 72.5591 5.48095 73.2739 6.20497C73.9886 6.9224 74.9152 7.28441 76.0535 7.28441C76.7948 7.28441 77.4897 6.98822 77.9662 6.53407V9.54203C77.9662 9.73291 78.1118 9.88429 78.3037 9.88429H80.0178C80.2097 9.88429 80.362 9.72632 80.362 9.53545V0.61688C80.362 0.412839 80.223 0.261453 80.0377 0.261453H78.3037Z" fill="#414141"/>
<path d="M87.7148 4.80301L90.7922 0.722191C90.9511 0.511568 90.8849 0.287781 90.64 0.287781H88.4626C88.231 0.287781 88.1053 0.314109 87.953 0.51815L85.4447 3.86837H84.3792V0.524732C84.3792 0.360183 84.2932 0.274617 84.1277 0.274617H82.2415C82.0695 0.274617 81.9834 0.360183 81.9834 0.524732V9.62759C81.9834 9.79873 82.0695 9.88429 82.2415 9.88429H84.1277C84.2932 9.88429 84.3792 9.79873 84.3792 9.62759V6.1194H85.7426L88.1781 9.75265C88.2641 9.85138 88.3832 9.90404 88.5222 9.90404H90.7194C90.9511 9.90404 91.0107 9.67367 90.8783 9.48279L87.7148 4.80301Z" fill="#414141"/>
<path d="M97.192 0.58397C97.1192 0.393093 96.9406 0.261453 96.7552 0.261453H95.3588C95.1735 0.261453 94.9948 0.379929 94.9088 0.58397L91.3746 9.50254C91.2886 9.73291 91.3879 9.89087 91.6328 9.89087H93.5057C93.7109 9.89087 93.8829 9.75923 93.9359 9.57494L94.3661 8.31778H97.7215L98.1583 9.58152C98.2311 9.76581 98.3966 9.89745 98.5819 9.89745H100.461C100.72 9.89745 100.806 9.72632 100.72 9.50912L97.192 0.58397ZM96.0405 3.41422L97.0398 6.33003H95.0411L96.0405 3.41422Z" fill="#414141"/>
</svg>
